<?xml version="1.0" encoding="UTF-8"?>
<svg xmlns="http://www.w3.org/2000/svg" viewBox="0 0 488.1 645.4">
  <path d="M488,539.6v-12.7c0-4.2-1.8-8.2-4.9-10.9-2.6-2.2-5.9-3.4-9.2-3.4h-69.9L311.6,45.4
       c-4.2-21.3-20.3-38.3-41.3-43.6-4.5-1.2-9.2-1.7-13.9-1.7h-24.8c-4.7,0-9.4.6-13.9,1.7c-21,5.4-37.1,22.3-41.3,43.6
       l-92.3,467.2H14c-4.2,0-8.2,1.8-10.9,4.9c-2.2,2.6-3.4,5.9-3.4,9.2L0,573.2v57.8c0,4.2,1.8,8.2,4.9,10.9
       c2.6,2.2,5.9,3.4,9.2,3.4h459.7c3.4,0,6.7-1.2,9.2-3.4c3.2-2.7,5-6.7,4.9-10.9v-91c0-0.2,0-0.3,0-0.5Z"/>
</svg>