<?xml version="1.0" encoding="UTF-8"?>
<svg xmlns="http://www.w3.org/2000/svg" viewBox="0 0 488.06 645.37">
  <path d="M481.71,516.69h0c-2.87-2.67-6.65-4.15-10.57-4.15h-67.22S311.61,45.36,311.61,45.36c-4.21-21.29-20.28-38.26-41.3-43.61h0c-4.54-1.16-9.21-1.74-13.89-1.74h-24.78c-4.68,0-9.35.59-13.89,1.74h0c-21.03,5.36-37.1,22.33-41.3,43.61l-92.31,467.18H16.92c-3.92,0-7.69,1.48-10.57,4.15h0c-3.1,2.89-4.89,6.92-4.95,11.16L0,631.01c-.06,4.19,1.75,8.2,4.92,10.93h0c2.57,2.22,5.86,3.43,9.25,3.43h210.41s38.89,0,38.89,0h210.41c3.4,0,6.68-1.22,9.25-3.43h0c3.18-2.74,4.98-6.74,4.92-10.93l-1.4-103.16c-.06-4.24-1.85-8.27-4.95-11.16Z"/>
</svg>