<?xml version="1.0" encoding="UTF-8"?><svg id="Layer_2" xmlns="http://www.w3.org/2000/svg" viewBox="0 0 488.3 641.3"><defs>
<style>.cls-1{fill:#000;stroke-width:0px;}</style></defs><g id="Layer_1-2"><path class="cls-1"
 d="M185.67,0l-101.27,509.42H14.3c-4.2,0-8.2,1.79-10.9,4.87-2.2,2.58-3.4,5.86-3.4,9.14l.3,46.21v57.44c0,4.17,1.8,8.15,4.9,10.83,2.6,2.19,5.9,3.38,9.2,3.38h459.7c3.4,0,6.7-1.19,9.2-3.38,3.2-2.68,5-6.66,4.9-10.83v-90.93l.1.1v-12.62c0-4.17-1.8-8.15-4.9-10.83-2.6-2.19-5.9-3.38-9.2-3.38h-69.9L302.92,0"/></g></svg>